Simulation
nRows=36
nColumns=15
endheader
time  TH_x TH_y TH_z SC_y  SC_z  SC_x  AC_y  AC_z  AC_x  GH_y  GH_z  GH_yy  EL_x  PS_y
5.745  0.000000  0.000000  0.000000  -50.970568225329686  17.578271233395  11.677773429466216  65.43815057365852  19.340989682906766  28.996306598515453  1.3930607837775317  53.13344511432164  -21.139364161781938  18.518233176665262  120.000000
5.80245  0.000000  0.000000  0.000000  -49.22522194857974  16.7743014867927  8.78052724765863  66.33676434322707  17.779362527389637  28.38745920858332  0.5422478648706791  53.743501045655286  -20.383598677195533  18.81283642953917  120.000000
5.8599  0.000000  0.000000  0.000000  -47.31700188317915  15.451740036152415  5.443346152558427  67.14449837722492  15.819553171465369  27.82122629632612  -0.4694042862148834  54.21669397582957  -19.05450869134691  19.201684199669366  120.000000
5.91735  0.000000  0.000000  0.000000  -45.422336503605386  13.560987281964888  1.959609703843875  67.70572948361541  13.451722818577153  27.31262035310836  -1.6240539892120125  54.50365356550833  -17.111752709819893  19.59633787785552  120.000000
5.9748  0.000000  0.000000  0.000000  -43.68246863049244  11.163786115610545  -1.3626236268858447  67.89152504663123  10.708495402087205  26.83292258876807  -2.888085311160705  54.57491972183685  -14.594739259512073  19.894367738716824  120.000000
6.03225  0.000000  0.000000  0.000000  -42.167012093253575  8.414867840990425  -4.258027746222656  67.63724039948181  7.662458352327244  26.30595578448783  -4.221415294083649  54.41205948882943  -11.628342721917644  20.009639345211088  120.000000
6.089700000000001  0.000000  0.000000  0.000000  -40.858586177603165  5.506488059638195  -6.5314651603915665  66.95584813350558  4.417039260582745  25.624429793729313  -5.601031496591428  53.97649218066873  -8.394450830332431  19.892830292301973  120.000000
6.14715  0.000000  0.000000  0.000000  -39.67279030874408  2.626953881139315  -8.05253879050038  65.92312611080777  1.0962498155097231  24.68359038913639  -7.031965019742319  53.19245454296515  -5.08583600032287  19.536259900674107  120.000000
6.2046  0.000000  0.000000  0.000000  -38.513744228616446  -0.03963690637260775  -8.735682687319489  64.65254156242287  -2.1682031975096074  23.419996911326916  -8.5085808916913  51.96986651183998  -1.876607469687775  18.96159464429304  120.000000
6.26205  0.000000  0.000000  0.000000  -37.36198450466199  -2.305739116509401  -8.549628604629067  63.27420294459503  -5.262275009603657  21.83035092660958  -9.948401884190766  50.259918603020814  1.0867923809146358  18.220852190338636  120.000000
6.3195  0.000000  0.000000  0.000000  -36.31798142713397  -4.011559990151584  -7.546892349122659  61.90497083662197  -8.114804202205608  19.965144124307713  -11.174137806336406  48.08543301438748  3.691022877981643  17.39776644338212  120.000000
6.37695  0.000000  0.000000  0.000000  -35.52671196081797  -5.09514089878636  -5.857191451084686  60.6281833425087  -10.695305120761635  17.907834839512446  -11.971680798355505  45.52256706973063  5.868658446626591  16.600593937972093  120.000000
6.4344  0.000000  0.000000  0.000000  -35.05434469195972  -5.619913544252428  -3.6520008300368496  59.479162417656305  -12.995329394291032  15.7341233068519  -12.204854949557582  42.67349668247333  7.619833732701767  15.92955891296014  120.000000
6.49185  0.000000  0.000000  0.000000  -34.8458959778391  -5.723530525691863  -1.1127249879879182  58.443516606855674  -15.01510924700458  13.489331628700894  -11.894626036202487  39.65590769112848  9.016827504717003  15.43859326256081  120.000000
6.549300000000001  0.000000  0.000000  0.000000  -34.79162663792003  -5.561012874092431  1.5892896969234849  57.49138686126971  -16.762037257224108  11.207310514610613  -11.162228982676373  36.596546342517726  10.158198738093327  15.158977576637792  120.000000
6.60675  0.000000  0.000000  0.000000  -34.80618303977211  -5.274699525968788  4.305520950571061  56.59649345047225  -18.25535917673195  8.926974349278924  -10.138229348947032  33.62228243410857  11.11188822308642  15.103163558658997  120.000000
6.6642  0.000000  0.000000  0.000000  -34.85134891557004  -4.96910198312983  6.915426363726787  55.74078546597574  -19.528330771861445  6.688981250844645  -8.942210765316947  30.854584671939246  11.910088796966154  15.259294429540024  120.000000
6.72165  0.000000  0.000000  0.000000  -34.90432797958493  -4.702446946981613  9.33645419808717  54.9150241053253  -20.63033156161484  4.540547974162884  -7.705512873573769  28.393923965670087  12.588672018450197  15.591635996851746  120.000000
6.7791  0.000000  0.000000  0.000000  -34.941876581659805  -4.501107121696705  11.519935329256267  54.117277226463024  -21.608954550935284  2.526614964419987  -6.564136654428483  26.302598998640573  13.20431922243809  16.042191026704426  120.000000
6.83655  0.000000  0.000000  0.000000  -34.94963027524796  -4.377014877319635  13.43584439755455  53.35013141630786  -22.481491522550115  0.6733252196272687  -5.629195143762898  24.593766250505627  13.82408629894484  16.536321852682104  120.000000
6.894  0.000000  0.000000  0.000000  -34.92544822797328  -4.330059987862815  15.068007196646192  52.62018595905594  -23.24549482580299  -1.0038093563371586  -4.967376506628339  23.24145434051265  14.505749407958024  16.98862012371743  120.000000
6.95145  0.000000  0.000000  0.000000  -34.87381992606951  -4.351684438890468  16.418749591009046  51.939499768491075  -23.901666584051057  -2.492491446090705  -4.591505974207149  22.196668248023446  15.274786419338445  17.320273199636286  120.000000
7.008900000000001  0.000000  0.000000  0.000000  -34.80069175757968  -4.42678562738899  17.5101303987385  51.319322530164904  -24.455522720197926  -3.789281650396446  -4.474937605410572  21.398823910700173  16.11942178924344  17.485744244103874  120.000000
7.06635  0.000000  0.000000  0.000000  -34.714576347778525  -4.532631777011259  18.377050259074704  50.766203028034  -24.915691056285443  -4.899206705411281  -4.575364697288578  20.792516658260894  17.00024464706004  17.494336661558126  120.000000
7.1238  0.000000  0.000000  0.000000  -34.62437231242129  -4.646031312748909  19.059408646416298  50.28247358360805  -25.292113440022263  -5.833049705274815  -4.8443510085646695  20.336184061225946  17.858211192245015  17.406161769742624  120.000000
7.18125  0.000000  0.000000  0.000000  -34.53987673430352  -4.748609657801287  19.59527193265475  49.86934647144505  -25.595106976494307  -6.604660508159964  -5.227237159364437  20.00158453663746  18.624181554040284  17.30630477669647  120.000000
7.2387  0.000000  0.000000  0.000000  -34.46865260315787  -4.829135396842814  20.017416510334453  49.5266228996412  -25.83479117842485  -7.229331834343758  -5.672414075205054  19.76906750417069  19.241509835112712  17.269009029514095  120.000000
7.29615  0.000000  0.000000  0.000000  -34.41438036384302  -4.884124346661784  20.35157248168524  49.252497739975624  -26.020815180791836  -7.7231116349361555  -6.140698415397217  19.623792418995567  19.686459099966324  17.331079500292923  120.000000
7.3536  0.000000  0.000000  0.000000  -34.37704534431719  -4.915991182327896  20.616277652287916  49.042714570913816  -26.162056353821054  -8.102382747699084  -6.61096428653024  19.552880675835627  19.975600680467295  17.486271896659062  120.000000
7.41105  0.000000  0.000000  0.000000  -34.35402501998867  -4.930673591734856  20.823924259812237  48.890355758311614  -26.26650984501942  -8.383923064798644  -7.080570642009879  19.544506386166283  20.15788339756664  17.70129851961718  120.000000
7.468500000000001  0.000000  0.000000  0.000000  -34.3414514918142  -4.9349314173448295  20.982729832477176  48.786031970077275  -26.341296763789565  -8.584616777142518  -7.559085175693216  19.587139666044283  20.294708526405373  17.937976833961834  120.000000
7.52595  0.000000  0.000000  0.000000  -34.33552112396831  -4.934534253104374  21.09864035209933  48.71907876281736  -26.392653575353464  -8.72086716933437  -8.058930995373018  19.669515216830096  20.43837754922426  18.169901982999303  120.000000
7.5834  0.000000  0.000000  0.000000  -34.3333370792766  -4.933165066727923  21.176866880300214  48.67869634593901  -26.42589384924596  -8.807737241329468  -8.588170667023116  19.78070322688512  20.61901845536138  18.38800969361001  120.000000
7.64085  0.000000  0.000000  0.000000  -34.33282576908086  -4.932476839743263  21.222908474691323  48.65546574006444  -26.44552647296606  -8.858372332037815  -9.148340309942357  19.91083362657242  20.844237183159972  18.595853376853558  120.000000
7.6983  0.000000  0.000000  0.000000  -34.332274250609764  -4.93235738235  21.243156422403935  48.64167567147268  -26.45530747968064  -8.883875627055296  -9.736418251919797  20.051384323851487  21.10731491345719  18.800860832581115  120.000000
7.75575  0.000000  0.000000  0.000000  -34.33051628293085  -4.931713309101447  21.2448057095578  48.631413772047345  -26.458634945029296  -8.893834949899158  -10.346471480937163  20.1959088393262  21.395329897049248  19.00761952633439  120.000000
